<svg width="27" height="30" viewBox="0 0 27 30" fill="none" xmlns="http://www.w3.org/2000/svg">
<path d="M9.13425 29.9999C9.0952 29.9765 9.06396 29.9452 9.02491 29.9296C8.39226 29.6719 8.08765 29.2032 8.08765 28.5237C8.09546 26.2196 8.09546 23.9155 8.09546 21.6114C8.09546 20.557 8.07984 19.5026 8.08765 18.4482C8.08765 17.9718 7.96268 17.5734 7.6737 17.1751C5.22902 13.8713 2.79997 10.544 0.355291 7.23238C0.0428727 6.81062 -0.0977157 6.37323 0.0741145 5.86555C0.253755 5.35006 0.722383 5.0064 1.31598 4.99859C4.44798 4.99078 7.57997 4.99859 10.7198 4.99859C10.7354 4.99859 10.7588 5.01421 10.7588 5.01421C10.0637 9.80984 11.9304 13.1996 16.3277 15.2615C15.9918 15.7224 15.6638 16.2457 15.2577 16.6987C14.6406 17.3938 14.4454 18.1748 14.461 19.0887C14.5079 21.1975 14.461 23.3063 14.4922 25.4151C14.5 26.1259 14.2657 26.7039 13.719 27.1335C12.5552 28.0317 11.3759 28.9142 10.1965 29.789C10.0637 29.8905 9.89187 29.9296 9.73566 29.9999C9.52478 29.9999 9.32952 29.9999 9.13425 29.9999Z" fill="#2FB44B"/>
<path d="M19.9752 0.00781047C20.3267 0.0859151 20.6938 0.132778 21.0374 0.234314C23.9117 1.06222 25.7237 2.89768 26.2783 5.85785C26.9656 9.52877 24.2632 13.309 20.561 13.887C16.7807 14.4806 13.3441 12.1531 12.5006 8.41968C11.6493 4.65504 14.2736 0.749805 18.0851 0.109347C18.2335 0.0859151 18.3741 0.0390523 18.5147 0C18.9989 0.00781047 19.4832 0.00781047 19.9752 0.00781047ZM20.6001 6.98256C20.9515 6.63109 21.2952 6.30305 21.631 5.95939C21.8732 5.70945 21.9825 5.42827 21.8653 5.08461C21.6388 4.42072 20.8969 4.23327 20.3892 4.71752C20.0455 5.05337 19.7175 5.41265 19.3582 5.78756C18.9911 5.40484 18.6787 5.05337 18.335 4.74095C18.1866 4.60817 17.9757 4.49102 17.7805 4.45197C17.4134 4.38167 17.0463 4.61599 16.8823 4.96746C16.7183 5.2955 16.7729 5.64697 17.0541 5.93595C17.3978 6.28743 17.757 6.63109 18.1163 6.98256C17.7414 7.34965 17.39 7.69331 17.0541 8.03697C16.7964 8.30253 16.7417 8.61494 16.8745 8.9586C17.0072 9.29445 17.265 9.48191 17.6243 9.52096C17.9211 9.5522 18.1554 9.41942 18.3584 9.21635C18.6865 8.8805 18.9989 8.54465 19.366 8.16194C19.7409 8.56027 20.0533 8.92736 20.397 9.24759C20.7953 9.62249 21.303 9.61468 21.6467 9.2554C22.0059 8.88831 21.9825 8.37282 21.5998 7.97449C21.2796 7.66207 20.9515 7.33403 20.6001 6.98256Z" fill="#82D293"/>
</svg>
