<svg width="37" height="32" viewBox="0 0 37 32" fill="none" xmlns="http://www.w3.org/2000/svg">
<path d="M14.3362 27.2987C14.4426 26.7513 14.549 26.2397 14.6555 25.6833C14.5224 25.6833 14.4071 25.6833 14.2919 25.6833C10.8775 25.6833 7.46305 25.6833 4.04864 25.6833C2.77157 25.6833 2.00887 24.9115 2.00887 23.6103C2 17.0949 2 10.5795 2 4.0641C2 2.76282 2.7627 2 4.04864 2C13.6799 2 23.3112 2 32.9514 2C34.2373 2 35 2.77179 35 4.0641C35 10.5795 35 17.0949 35 23.6192C35 24.9205 34.2373 25.6923 32.9602 25.6923C29.5547 25.6923 26.158 25.6923 22.7525 25.6923C22.6283 25.6923 22.513 25.6923 22.3534 25.6923C22.4598 26.2397 22.5574 26.7603 22.6727 27.3077C23.3555 27.3077 24.0296 27.3077 24.7036 27.3077C25.2712 27.3077 25.4308 27.4782 25.4308 28.0526C25.4308 28.5013 25.4397 28.95 25.4308 29.3987C25.4219 29.7936 25.2268 30 24.8366 30C20.624 30 16.4114 30 12.1989 30C11.8087 30 11.6047 29.7936 11.6047 29.3987C11.5958 28.9141 11.5958 28.4385 11.6047 27.9538C11.6047 27.5141 11.7998 27.3167 12.2343 27.3167C12.8995 27.2987 13.6001 27.2987 14.3362 27.2987ZM33.9269 21.3667C33.9269 21.241 33.9269 21.1333 33.9269 21.0256C33.9269 15.3808 33.9269 9.74487 33.9269 4.1C33.9269 3.34615 33.652 3.06795 32.907 3.06795C23.3023 3.06795 13.6888 3.06795 4.08412 3.06795C3.33916 3.07692 3.06423 3.35513 3.06423 4.10897C3.06423 9.75385 3.06423 15.3897 3.06423 21.0346C3.06423 21.1423 3.06423 21.25 3.06423 21.3667C13.3607 21.3667 23.6305 21.3667 33.9269 21.3667ZM3.06423 22.4615C3.06423 22.8385 3.06423 23.1795 3.06423 23.5295C3.06423 24.3551 3.32142 24.6064 4.13733 24.6064C13.7154 24.6064 23.2846 24.6064 32.8627 24.6064C32.9691 24.6064 33.0844 24.6154 33.1908 24.5974C33.5456 24.5615 33.8737 24.3013 33.9003 23.9513C33.9358 23.4577 33.9092 22.9551 33.9092 22.4526C23.6216 22.4615 13.3607 22.4615 3.06423 22.4615ZM15.427 27.2897C17.4934 27.2897 19.5243 27.2897 21.573 27.2897C21.4665 26.7513 21.3601 26.2308 21.2626 25.7103C19.409 25.7103 17.5821 25.7103 15.7374 25.7103C15.631 26.2397 15.5246 26.7513 15.427 27.2897ZM12.6512 28.8962C16.5711 28.8962 20.4555 28.8962 24.3311 28.8962C24.3311 28.7167 24.3311 28.5551 24.3311 28.3936C20.4289 28.3936 16.5445 28.3936 12.6512 28.3936C12.6512 28.5731 12.6512 28.7256 12.6512 28.8962Z" fill="#2FB44B"/>
<path d="M18.4956 23.0001C18.6729 23.0001 18.8503 22.9911 19.0277 23.0001C19.3381 23.018 19.5598 23.2334 19.5598 23.5296C19.5687 23.8257 19.3558 24.0591 19.0454 24.077C18.6818 24.095 18.3182 24.095 17.9546 24.077C17.6442 24.068 17.4313 23.8257 17.4402 23.5385C17.4402 23.2424 17.6619 23.027 17.9723 23.0091C18.1408 22.9911 18.3182 23.0001 18.4956 23.0001Z" fill="#2FB44B"/>
<path d="M16.0212 17.7511C16.031 17.683 16.0601 17.5274 16.099 17.3815C17.2362 13.569 18.383 9.74688 19.5299 5.93445C19.7146 5.32173 20.152 4.98134 20.7157 5.00079C21.26 5.02024 21.7168 5.38981 21.8042 5.94417C21.8431 6.16786 21.8042 6.43045 21.7362 6.65414C20.6476 10.3207 19.5396 13.9872 18.4414 17.6538C18.3733 17.8872 18.315 18.1206 18.2081 18.3443C17.9845 18.8306 17.45 19.0932 16.9446 18.9862C16.41 18.8598 16.0212 18.3929 16.0212 17.7511Z" fill="#2FB44B"/>
<path d="M26.0418 12.0034C25.2254 11.1865 24.4381 10.4084 23.6606 9.63036C23.1163 9.08573 23.0774 8.37576 23.5537 7.88948C24.0299 7.4032 24.7589 7.43237 25.2934 7.97701C26.3334 9.01765 27.3734 10.0486 28.4036 11.0892C28.9868 11.6727 28.9868 12.3341 28.4133 12.9079C27.3734 13.9583 26.3237 15.0086 25.274 16.0493C24.7394 16.5842 24.0396 16.6133 23.5634 16.1368C23.0774 15.6602 23.1066 14.9308 23.6411 14.3959C24.4381 13.6081 25.2254 12.8204 26.0418 12.0034Z" fill="#82D293"/>
<path d="M11.8128 12.0132C12.6389 12.8301 13.4456 13.6276 14.2426 14.4154C14.612 14.7849 14.748 15.2129 14.5634 15.7089C14.2912 16.4675 13.3193 16.7495 12.7459 16.1952C11.5698 15.067 10.4327 13.9096 9.29549 12.7426C8.88728 12.3244 8.90672 11.6436 9.32465 11.2157C10.4424 10.0778 11.5601 8.95931 12.6973 7.84087C13.1443 7.40322 13.8636 7.4324 14.3107 7.87005C14.7578 8.31743 14.7772 9.03712 14.3204 9.50395C13.5137 10.3404 12.6875 11.1476 11.8128 12.0132Z" fill="#2FB44B"/>
</svg>
