<svg width="24" height="28" viewBox="0 0 24 28" fill="none" xmlns="http://www.w3.org/2000/svg">
<path d="M11.4208 28C11.1364 27.9052 10.852 27.8323 10.5746 27.723C9.24497 27.1763 8.42725 26.163 8.07883 24.7196C7.98639 24.7196 7.89396 24.7196 7.79441 24.7196C5.48347 24.7196 3.17253 24.7196 0.861588 24.7196C0.200303 24.7196 -0.197889 24.0854 0.100755 23.5168C0.15053 23.422 0.221635 23.3345 0.292741 23.2544C1.93529 21.4465 3.03032 19.347 3.47828 16.9196C3.63472 16.0448 3.6916 15.1481 3.72715 14.2588C3.77693 13.1507 3.6916 12.0281 3.79115 10.9274C4.0258 8.33221 5.24882 6.29107 7.318 4.78209C8.00772 4.27909 8.76856 3.91461 9.60049 3.64488C9.60049 3.29498 9.60049 2.94507 9.60049 2.58787C9.60049 1.26842 10.3116 0.349909 11.5701 0.0437386C11.5915 0.0364488 11.6057 0.0145795 11.627 0C11.8759 0 12.1248 0 12.3736 0C12.4945 0.0364488 12.6154 0.0801874 12.7363 0.116636C13.6891 0.430096 14.3717 1.3559 14.4001 2.39104C14.4072 2.79927 14.4001 3.2075 14.4001 3.57928C14.9974 3.87087 15.6018 4.09685 16.1351 4.43218C18.7803 6.07967 20.1668 8.49987 20.2593 11.6782C20.2877 12.6696 20.245 13.6683 20.2735 14.6597C20.3588 17.8745 21.4609 20.6884 23.5586 23.0867C23.651 23.1888 23.7434 23.2835 23.8217 23.3929C24.0137 23.6553 24.0563 23.9396 23.9141 24.2385C23.779 24.5374 23.5372 24.6904 23.2173 24.7123C23.139 24.7196 23.0608 24.7123 22.9755 24.7123C20.7214 24.7123 18.4603 24.7123 16.2062 24.7123C16.1067 24.7123 16.0142 24.7123 15.9147 24.7123C15.6516 25.8714 15.0472 26.768 14.0731 27.3877C13.5895 27.6938 13.0705 27.8907 12.5087 27.9417C12.4803 27.9417 12.4518 27.9708 12.4234 27.9854C12.0963 28 11.755 28 11.4208 28ZM21.4681 23.0648C21.4041 22.9701 21.3614 22.9045 21.3187 22.8461C19.7686 20.6155 18.8727 18.1369 18.7163 15.396C18.6523 14.2515 18.6878 13.0997 18.6665 11.9552C18.6594 11.5616 18.6523 11.1679 18.6025 10.7816C18.0408 6.82322 14.329 4.21349 10.5178 5.08826C7.77308 5.71518 5.65412 8.12809 5.39814 11.0148C5.29859 12.0937 5.34837 13.1799 5.34126 14.2661C5.33415 17.4298 4.45243 20.302 2.66057 22.8826C2.62501 22.9336 2.59657 22.9919 2.55391 23.0575C8.8681 23.0648 15.1468 23.0648 21.4681 23.0648ZM9.77115 24.7269C10.0271 25.6746 11.0226 26.3744 12.0608 26.3598C13.0491 26.3452 14.0162 25.6162 14.2366 24.7269C12.7505 24.7269 11.2715 24.7269 9.77115 24.7269ZM11.2075 3.30955C11.755 3.30955 12.2741 3.30955 12.8003 3.30955C12.8003 3.00338 12.8145 2.7045 12.8003 2.40562C12.7718 1.97553 12.4163 1.64749 12.0039 1.65478C11.6057 1.65478 11.243 1.97553 11.2146 2.39104C11.1862 2.68992 11.2075 2.99609 11.2075 3.30955Z" fill="#2FB44B"/>
<path d="M23.9924 11.4453C23.9924 11.5984 24.0137 11.7588 23.9853 11.9118C23.9141 12.3274 23.5373 12.619 23.1391 12.5825C22.7267 12.5533 22.4067 12.2107 22.3996 11.7661C22.3854 10.6361 22.2289 9.53539 21.8876 8.46379C21.3899 6.89649 20.5722 5.5333 19.4629 4.34507C19.3349 4.20657 19.2069 4.03161 19.1501 3.84937C19.0363 3.49217 19.2069 3.12039 19.5127 2.93815C19.8398 2.74861 20.2309 2.80693 20.5082 3.09852C21.1837 3.79834 21.781 4.57105 22.2716 5.41667C23.3737 7.26827 23.9355 9.28753 23.9924 11.4453Z" fill="#82D293"/>
<path d="M0.0084915 11.3868C0.136482 8.18655 1.2884 5.40915 3.49268 3.09829C3.81977 2.75567 4.31751 2.74109 4.63748 3.04726C4.96457 3.36801 4.97168 3.87829 4.63037 4.24278C3.59223 5.32896 2.79584 6.57551 2.27677 7.99701C1.86435 9.11964 1.65104 10.286 1.61548 11.4888C1.60837 11.6273 1.62259 11.7658 1.60126 11.897C1.53016 12.3126 1.16041 12.6041 0.762214 12.5823C0.3498 12.5531 0.0298233 12.2032 0.0156021 11.7731C0.00138094 11.6492 0.0084915 11.5326 0.0084915 11.3868Z" fill="#82D293"/>
</svg>
